# xmcd CD database file
#
# Track frame offsets:
#	150
#	18730
#	36795
#	52900
#	72650
#	91595
#	108870
#	124055
#	142593
#	158693
#
# Disc length: 2350 seconds
#
# Revision: 1
# Processed by: cddbd v1.4PL0 Copyright (c) Steve Scherf et al.
# Submitted via: CDex 1.50
#
DISCID=76092c0a
DTITLE=Brent Lamb - Living Proof
DYEAR=1990
DGENRE=Country
TTITLE0=Living Proof
TTITLE1=We're A Family
TTITLE2=Never A Doubt
TTITLE3=Never Knew Love
TTITLE4=Common Ground
TTITLE5=One About Heaven
TTITLE6=Luke's Song
TTITLE7=Don't Laugh Too Loud
TTITLE8=Quiet Please
TTITLE9=Angels Are Laughing
EXTD=YEAR: 1990
EXTT0=
EXTT1=
EXTT2=
EXTT3=
EXTT4=
EXTT5=
EXTT6=
EXTT7=
EXTT8=
EXTT9=
PLAYORDER=
